<?xml version="1.0" encoding="UTF-8"?>
<svg width="20px" height="14px" viewBox="0 0 20 14" version="1.1" xmlns="http://www.w3.org/2000/svg" xmlns:xlink="http://www.w3.org/1999/xlink">
    <!-- Generator: Sketch 52.2 (67145) - http://www.bohemiancoding.com/sketch -->
    <title>Group 28 Copy</title>
    <desc>Created with Sketch.</desc>
    <g id="Heards" stroke="none" stroke-width="1" fill="none" fill-rule="evenodd">
        <g id="06-Platform-Platts-Iris" transform="translate(-839.000000, -1734.000000)">
            <g id="Group-7" transform="translate(40.000000, 1470.000000)">
                <g id="Group-10" transform="translate(794.000000, 115.000000)">
                    <g id="Group-13" transform="translate(3.000000, 147.000000)">
                        <g id="Group-28-Copy">
                            <rect id="Rectangle" x="0" y="0" width="24" height="18"></rect>
                            <path d="M6.43323639,6 L11.5570467,2.53147871 C11.8160128,2.35617376 12.1839873,2.35617376 12.4429534,2.53147871 L17.5667637,6 L21.6,6 L21.6,15.6 L2.4,15.6 L2.4,6 L6.43323639,6 Z M8.70337225,6 L15.2966278,6 L12,3.76837491 L8.70337225,6 Z M6.192,12.6 L6.534,10.296 L7.458,12.6 L7.872,12.6 L8.838,10.296 L9.132,12.6 L10.17,12.6 L9.57,8.598 L8.532,8.598 L7.674,10.734 L6.864,8.598 L5.838,8.598 L5.16,12.6 L6.192,12.6 Z M15.186,10.602 C15.186,10.068 14.982,9.504 14.556,9.102 C14.148,8.712 13.572,8.508 12.978,8.508 C12.384,8.508 11.808,8.712 11.4,9.102 C10.974,9.504 10.77,10.068 10.77,10.602 C10.77,11.13 10.974,11.688 11.4,12.096 C11.808,12.486 12.384,12.69 12.978,12.69 C13.572,12.69 14.148,12.486 14.556,12.096 C14.982,11.688 15.186,11.13 15.186,10.602 Z M12.978,9.516 C13.254,9.516 13.56,9.624 13.782,9.834 C13.968,10.014 14.106,10.29 14.106,10.602 C14.106,10.908 13.968,11.184 13.782,11.37 C13.596,11.556 13.332,11.682 12.978,11.682 C12.63,11.682 12.36,11.55 12.168,11.364 C12.018,11.22 11.85,10.974 11.85,10.62 C11.85,10.338 11.952,10.044 12.168,9.834 C12.384,9.618 12.69,9.516 12.978,9.516 Z M18.84,11.262 C18.474,11.664 18.09,11.682 17.934,11.682 C17.64,11.682 17.364,11.568 17.19,11.406 C16.98,11.208 16.866,10.902 16.866,10.626 C16.866,10.344 16.968,10.032 17.214,9.804 C17.406,9.63 17.634,9.54 17.934,9.54 C18.108,9.54 18.504,9.564 18.84,9.978 L18.84,8.736 C18.408,8.562 18.096,8.532 17.904,8.532 C17.28,8.532 16.746,8.796 16.392,9.156 C16.032,9.522 15.786,10.062 15.786,10.632 C15.786,11.154 16.002,11.7 16.392,12.09 C16.722,12.414 17.244,12.69 17.94,12.69 C18.198,12.69 18.426,12.642 18.84,12.492 L18.84,11.262 Z" id="Combined-Shape" fill="#FE4719"></path>
                        </g>
                    </g>
                </g>
            </g>
        </g>
    </g>
</svg>