<?xml version="1.0" encoding="iso-8859-1"?>
<!-- Generator: Adobe Illustrator 19.0.0, SVG Export Plug-In . SVG Version: 6.00 Build 0)  -->
<svg xmlns="http://www.w3.org/2000/svg" xmlns:xlink="http://www.w3.org/1999/xlink" version="1.1" id="Layer_1" x="0px" y="0px" viewBox="0 0 431.006 431.006" style="enable-background:new 0 0 431.006 431.006;" xml:space="preserve" width="512" height="512">
<g>
	<g>
		<path style="fill:#77BC1F;" d="M254.524,269.259c7.467,16.593,26.975,23.993,43.566,16.525l86.455-38.787    c8.32-3.745,12.031-13.525,8.287-21.847c-3.746-8.323-13.527-12.032-21.848-8.286l-24.775,11.148    c-4.473,2.014-9.73,0.02-11.746-4.453c-2.014-4.475-0.02-9.733,4.457-11.745l82.342-37.054    c8.318-3.744,12.029-13.526,8.285-21.847c-3.744-8.321-13.527-12.03-21.848-8.287l-25.039,11.269    c-4.473,2.013-9.73,0.019-11.746-4.456c-2.012-4.473-0.016-9.731,4.455-11.745l33.84-15.228    c8.32-3.745,12.031-13.525,8.287-21.846c-3.744-8.321-13.525-12.032-21.848-8.288l-14.002,6.302    c-4.473,2.013-9.733,0.018-11.746-4.455c-1.047-2.328-1.01-4.871-0.102-7.055l0.004,0L382.51,55.62    c4.037-10.638-1.318-22.535-11.955-26.57c-10.641-4.035-22.537,1.318-26.572,11.957l-12.707,33.505l0.004,0.002    c-0.771,2.238-2.428,4.165-4.756,5.213c-4.475,2.013-9.732,0.018-11.746-4.456l-6.301-14.003    c-3.744-8.323-13.527-12.033-21.848-8.288c-8.322,3.746-12.033,13.526-8.283,21.847l15.225,33.84    c2.012,4.473,0.018,9.731-4.455,11.744c-4.477,2.012-9.732,0.019-11.746-4.455l-11.268-25.04    c-3.744-8.32-13.525-12.03-21.848-8.286c-8.32,3.746-12.03,13.526-8.286,21.846l37.054,82.341    c2.014,4.474,0.02,9.732-4.455,11.745c-4.473,2.013-9.732,0.018-11.744-4.454l-11.15-24.779    c-3.74-8.319-13.524-12.029-21.846-8.286c-8.322,3.745-12.032,13.527-8.286,21.848L254.524,269.259z"/>
		<path style="opacity:0.5;fill:#218649;" d="M343.983,41.006l-12.707,33.505l0.004,0.002c-0.771,2.238-2.428,4.165-4.756,5.213    c-4.475,2.013-9.732,0.018-11.746-4.456l-6.301-14.003c-3.744-8.323-13.527-12.033-21.848-8.288    c-8.322,3.746-12.033,13.526-8.283,21.847l15.225,33.84c2.012,4.473,0.018,9.731-4.455,11.744    c-4.477,2.012-9.732,0.019-11.746-4.455l-11.268-25.04c-3.744-8.32-13.525-12.03-21.848-8.286    c-8.32,3.746-12.03,13.526-8.286,21.846l37.054,82.341c2.014,4.474,0.02,9.732-4.455,11.745    c-4.473,2.013-9.732,0.018-11.744-4.454l-11.15-24.779c-3.74-8.319-13.524-12.029-21.846-8.286    c-8.322,3.745-12.032,13.527-8.286,21.848l38.983,86.368c3.734,8.296,10.475,14.294,18.359,17.286L370.555,29.05    C359.914,25.014,348.018,30.368,343.983,41.006z"/>
	</g>
	<g>
		<g>
			<path style="fill:#997668;" d="M200.77,132.582c-7.27,0-13.164-5.894-13.164-13.164V76.399c0-26.496,21.556-48.052,48.049-48.052     c7.27,0,13.164,5.894,13.164,13.164c0,7.271-5.895,13.165-13.164,13.165c-11.977,0-21.721,9.745-21.721,21.723v43.019     C213.934,126.688,208.041,132.582,200.77,132.582z"/>
			<rect x="187.606" y="79.014" style="opacity:0.2;fill:#222222;" width="26.328" height="24.787"/>
		</g>
		<g>
			<path style="fill:#985F35;" d="M352.463,198.616c0-83.778-67.916-73.302-151.693-73.302S49.078,114.838,49.078,198.616     c0,83.777,67.914,193.281,151.691,193.281S352.463,282.393,352.463,198.616z"/>
			<path style="opacity:0.3;fill:#222222;" d="M49.078,198.616c0,83.777,67.914,193.281,151.691,193.281V125.314     C116.992,125.314,49.078,114.838,49.078,198.616z"/>
			<path style="opacity:0.3;fill:#222222;" d="M200.77,125.314c-82.987,0-150.396-10.262-151.663,70.972     c4.391,1.571,9.119,2.434,14.049,2.434h275.229c4.93,0,9.658-0.862,14.049-2.434C351.168,115.052,283.758,125.314,200.77,125.314     z"/>
		</g>
		<g>
			<path style="fill:#65513C;" d="M338.385,181.548c23.012,0,41.668-18.655,41.668-41.667s-18.656-41.667-41.668-41.667H63.155     c-23.012,0-41.668,18.655-41.668,41.667s18.656,41.667,41.668,41.667H338.385z"/>
			<g>
				<circle style="fill:#997668;" cx="65.079" cy="123.958" r="8.138"/>
				<circle style="fill:#997668;" cx="173.632" cy="123.958" r="8.138"/>
				<circle style="fill:#997668;" cx="119.355" cy="155.803" r="8.138"/>
				<circle style="fill:#997668;" cx="227.909" cy="155.803" r="8.138"/>
				<circle style="fill:#997668;" cx="282.185" cy="123.958" r="8.138"/>
				<circle style="fill:#997668;" cx="336.463" cy="155.803" r="8.137"/>
				<circle style="fill:#B08876;" cx="336.463" cy="123.958" r="8.137"/>
				<circle style="fill:#B08876;" cx="227.909" cy="123.958" r="8.138"/>
				<circle style="fill:#B08876;" cx="282.185" cy="155.803" r="8.138"/>
				<circle style="fill:#B08876;" cx="173.632" cy="155.803" r="8.138"/>
				<circle style="fill:#B08876;" cx="119.355" cy="123.958" r="8.138"/>
				<circle style="fill:#B08876;" cx="65.079" cy="155.803" r="8.138"/>
				<circle style="fill:#B08876;" cx="87.859" cy="139.881" r="8.138"/>
				<circle style="fill:#997668;" cx="145.84" cy="139.881" r="8.138"/>
				<circle style="fill:#B08876;" cx="313.685" cy="139.881" r="8.138"/>
				<circle style="fill:#997668;" cx="255.701" cy="139.881" r="8.137"/>
				<circle style="fill:#B08876;" cx="200.771" cy="139.881" r="8.138"/>
			</g>
			<path style="opacity:0.3;fill:#222222;" d="M63.155,98.213c-23.012,0-41.668,18.655-41.668,41.667s18.656,41.667,41.668,41.667     H200.77V98.213H63.155z"/>
		</g>
	</g>
	<g>
		<path style="fill:#77BC1F;" d="M133.368,403.301c-2.121,0-4.229-0.895-5.712-2.635l-15.371-18.034    c-2.687-3.152-2.31-7.886,0.843-10.573c3.153-2.688,7.887-2.309,10.573,0.843l15.371,18.034c2.687,3.152,2.31,7.886-0.843,10.573    C136.818,402.712,135.088,403.301,133.368,403.301z"/>
		<path style="fill:#77BC1F;" d="M106.479,386.218c11.091,0.881,20.798-7.394,21.686-18.482l4.665-57.75    c0.442-5.561-3.706-10.429-9.268-10.873c-5.563-0.442-10.431,3.707-10.872,9.268l-1.319,16.56c-0.24,2.99-2.854,5.219-5.844,4.983    c-2.993-0.238-5.222-2.857-4.985-5.847l4.389-55.034c0.441-5.562-3.706-10.429-9.269-10.872    c-5.562-0.442-10.43,3.708-10.872,9.268l-1.334,16.735c-0.24,2.989-2.856,5.219-5.845,4.981c-2.99-0.238-5.221-2.855-4.98-5.846    l1.801-22.617c0.442-5.56-3.704-10.429-9.268-10.871c-5.562-0.445-10.429,3.705-10.874,9.266l-0.743,9.36    c-0.238,2.988-2.858,5.222-5.846,4.982c-1.557-0.125-2.909-0.894-3.812-2.023l0.001-0.001l-14.213-16.673    c-4.514-5.296-12.462-5.929-17.759-1.416c-5.296,4.513-5.928,12.463-1.416,17.759l14.214,16.673l0.002-0.002    c0.974,1.072,1.519,2.527,1.395,4.084c-0.24,2.988-2.855,5.22-5.846,4.98l-9.359-0.744c-5.562-0.444-10.432,3.706-10.875,9.268    c-0.442,5.56,3.708,10.43,9.271,10.87l22.614,1.804c2.99,0.239,5.222,2.857,4.982,5.847c-0.24,2.989-2.855,5.219-5.845,4.98    l-16.734-1.332c-5.56-0.443-10.431,3.705-10.874,9.268c-0.441,5.56,3.707,10.428,9.267,10.871l55.036,4.387    c2.99,0.237,5.221,2.855,4.98,5.846c-0.236,2.988-2.855,5.221-5.846,4.982l-16.557-1.322c-5.564-0.443-10.43,3.706-10.874,9.268    c-0.443,5.563,3.707,10.43,9.268,10.871L106.479,386.218z"/>
		<path style="opacity:0.5;fill:#218649;" d="M10.502,271.078l14.214,16.673l0.002-0.002c0.974,1.072,1.519,2.527,1.395,4.084    c-0.24,2.988-2.855,5.22-5.846,4.98l-9.359-0.744c-5.562-0.444-10.432,3.706-10.875,9.268c-0.442,5.56,3.708,10.43,9.271,10.87    l22.614,1.804c2.99,0.239,5.222,2.857,4.982,5.847c-0.24,2.989-2.855,5.219-5.845,4.98l-16.734-1.332    c-5.56-0.443-10.431,3.705-10.874,9.268c-0.441,5.56,3.707,10.428,9.267,10.871l55.036,4.387c2.99,0.237,5.221,2.855,4.98,5.846    c-0.236,2.988-2.855,5.221-5.846,4.982l-16.557-1.322c-5.564-0.443-10.43,3.706-10.874,9.268    c-0.443,5.563,3.707,10.43,9.268,10.871l57.758,4.541c5.546,0.439,10.749-1.408,14.668-4.751L11.918,253.319    C6.622,257.832,5.99,265.782,10.502,271.078z"/>
	</g>
</g>















</svg>
