<?xml version="1.0" encoding="iso-8859-1"?>
<!-- Generator: Adobe Illustrator 19.0.0, SVG Export Plug-In . SVG Version: 6.00 Build 0)  -->
<svg xmlns="http://www.w3.org/2000/svg" xmlns:xlink="http://www.w3.org/1999/xlink" version="1.1" id="Layer_1" x="0px" y="0px" viewBox="0 0 405.02 405.02" style="enable-background:new 0 0 405.02 405.02;" xml:space="preserve" width="512" height="512">
<g>
	<g>
		<g>
			<path style="fill:#65513C;" d="M200.542,154.764c-0.934,0-1.88-0.082-2.83-0.252c-8.699-1.553-14.492-9.863-12.939-18.563     c6.344-35.535,32.51-85.09,65.315-106.508c7.4-4.828,17.314-2.75,22.145,4.65c4.831,7.398,2.748,17.314-4.65,22.145     c-24.425,15.945-46.249,56.998-51.308,85.336C214.892,149.32,208.146,154.764,200.542,154.764z"/>
			<path style="opacity:0.3;fill:#222222;" d="M272.233,34.092c-31.223,14.947-71.709,68.848-74.521,120.42     c0.95,0.17,1.896,0.252,2.83,0.252c7.604,0,14.35-5.443,15.732-13.191c5.059-28.338,26.883-69.391,51.308-85.336     C274.98,51.406,277.064,41.49,272.233,34.092z"/>
		</g>
		<g>
			<path style="fill:#77BC1F;" d="M193.664,117.773c16.898-8.715,15.969-34.857,2.737-60.516C179.702,24.873,132.937,0,132.937,0     s-6.858,52.521,9.842,84.91C156.009,110.568,176.762,126.486,193.664,117.773z"/>
			<path style="opacity:0.5;fill:#218649;" d="M132.937,0c0,0-6.858,52.521,9.842,84.91c13.23,25.658,33.983,41.576,50.886,32.863     L132.937,0z"/>
		</g>
	</g>
	<g>
		<path style="fill:#FF5959;" d="M163.933,102.98v0.014c-13.535-8.938-29.743-14.152-47.175-14.152    c-47.358,0-85.752,38.393-85.752,85.752c0,55.463,40.158,186.732,74.55,214.939c9.573,9.568,22.797,15.486,37.399,15.486    c11.347,0,21.851-3.586,30.466-9.666l0.008,0.012c7.966-5.189,21.847-7.338,29.081-7.338V115.295    C196.057,115.295,177.072,111.117,163.933,102.98z"/>
		<path style="opacity:0.2;fill:#222222;" d="M42.249,246.93c14.365,57.854,40.143,123.605,63.307,142.604    c9.573,9.568,22.797,15.486,37.399,15.486c11.347,0,21.851-3.586,30.466-9.666l0.008,0.012c7.966-5.189,21.847-7.338,29.081-7.338    V246.93H42.249z"/>
	</g>
	<g>
		<path style="fill:#F5CFB2;" d="M231.592,395.35c8.615,6.084,19.121,9.67,30.473,9.67c14.602,0,27.824-5.918,37.398-15.486    c34.393-28.207,74.551-159.477,74.551-214.939c0-47.359-38.393-85.752-85.752-85.752c-17.432,0-33.64,5.215-47.175,14.152v-0.014    c-13.14,8.137-32.124,12.314-38.577,12.314v272.732c7.234,0,21.114,2.148,29.081,7.338L231.592,395.35z"/>
		<path style="opacity:0.1;fill:#222222;" d="M202.51,246.93v141.098c7.234,0,21.114,2.148,29.081,7.338l0.001-0.016    c8.615,6.084,19.121,9.67,30.473,9.67c14.602,0,27.824-5.918,37.398-15.486c23.164-18.998,48.942-84.75,63.307-142.604H202.51z"/>
		<path style="opacity:0.2;fill:#222222;" d="M202.51,115.295v272.732c3.42,0,8.328,0.488,13.393,1.543V113.102    C210.138,114.557,205.218,115.295,202.51,115.295z"/>
	</g>
	<path style="fill:#333E48;" d="M238.153,250.256c-1.163-5.053-8.698-19.064-13.751-17.902c-5.049,1.164-5.701,17.063-4.538,22.111   s6.198,8.201,11.249,7.039C236.163,260.344,239.316,255.307,238.153,250.256z"/>
</g>















</svg>
