<?xml version="1.0" encoding="iso-8859-1"?>
<!-- Generator: Adobe Illustrator 19.0.0, SVG Export Plug-In . SVG Version: 6.00 Build 0)  -->
<svg xmlns="http://www.w3.org/2000/svg" xmlns:xlink="http://www.w3.org/1999/xlink" version="1.1" id="Layer_1" x="0px" y="0px" viewBox="0 0 412.283 412.283" style="enable-background:new 0 0 412.283 412.283;" xml:space="preserve" width="512" height="512">
<g>
	<g>
		<path style="fill:#65513C;" d="M161.554,378.526c-4.143,0-7.5-3.358-7.5-7.5v-40.517c0-4.142,3.357-7.5,7.5-7.5    c4.143,0,7.5,3.358,7.5,7.5v40.517C169.054,375.168,165.697,378.526,161.554,378.526z"/>
		<path style="fill:#65513C;" d="M193.796,378.526c-4.143,0-7.5-3.358-7.5-7.5v-40.517c0-4.142,3.357-7.5,7.5-7.5    c4.141,0,7.5,3.358,7.5,7.5v40.517C201.296,375.168,197.937,378.526,193.796,378.526z"/>
		<path style="fill:#65513C;" d="M239.469,378.526c-4.143,0-7.5-3.358-7.5-7.5v-40.517c0-4.142,3.357-7.5,7.5-7.5    c4.143,0,7.5,3.358,7.5,7.5v40.517C246.969,375.168,243.611,378.526,239.469,378.526z"/>
		<path style="fill:#65513C;" d="M271.711,378.526c-4.142,0-7.5-3.358-7.5-7.5v-40.517c0-4.142,3.358-7.5,7.5-7.5    c4.143,0,7.5,3.358,7.5,7.5v40.517C279.211,375.168,275.854,378.526,271.711,378.526z"/>
	</g>
	<g>
		<rect x="154.054" y="342.526" style="opacity:0.3;fill:#222222;" width="15" height="14.75"/>
		<rect x="186.296" y="342.526" style="opacity:0.3;fill:#222222;" width="15" height="14.75"/>
		<rect x="231.969" y="342.526" style="opacity:0.3;fill:#222222;" width="15" height="14.75"/>
		<rect x="264.211" y="342.526" style="opacity:0.3;fill:#222222;" width="15" height="14.75"/>
	</g>
	<g>
		<polygon style="fill:#65513C;" points="58.815,224.653 0,254.061 58.815,283.468   "/>
		<g style="opacity:0.3;">
			<g>
				<path style="fill:#222222;" d="M30.65,238.735c-0.814,4.989-1.243,10.106-1.243,15.326c0,5.218,0.43,10.335,1.243,15.325      l28.165,14.082v-58.814L30.65,238.735z"/>
			</g>
		</g>
	</g>
	<path style="fill:#FFC843;" d="M314.607,159.488c52.232,0,94.572,42.341,94.572,94.572c0,52.23-42.34,94.571-94.572,94.571H138.36   c-52.23,0-94.572-42.341-94.572-94.571c0-52.231,42.342-94.572,94.572-94.572H314.607z"/>
	<g>
		<rect x="138.36" y="159.488" style="fill:#65513C;" width="34.389" height="189.143"/>
		<rect x="209.289" y="159.488" style="fill:#65513C;" width="34.391" height="189.143"/>
		<rect x="280.219" y="159.488" style="fill:#65513C;" width="34.389" height="189.143"/>
	</g>
	<g>
		<path style="fill:#229CD2;" d="M286.127,33.757c34.721,0,62.865,28.146,62.865,62.866c0,34.72-28.145,62.865-62.865,62.865H223.26    V96.623C223.26,61.903,251.406,33.757,286.127,33.757z"/>
		<path style="opacity:0.2;fill:#222222;" d="M233.471,62.296c-6.449,9.871-10.211,21.657-10.211,34.327v62.865h20.42V96.623    C243.68,83.953,239.918,72.168,233.471,62.296z"/>
	</g>
	<g>
		<path style="fill:#67CFE3;" d="M169.525,33.757c-34.719,0-62.865,28.146-62.865,62.866c0,34.72,28.146,62.865,62.865,62.865    h62.868V96.623C232.393,61.903,204.246,33.757,169.525,33.757z"/>
		<path style="opacity:0.2;fill:#222222;" d="M169.525,33.757c-34.719,0-62.865,28.146-62.865,62.866    c0,34.72,28.146,62.865,62.865,62.865V33.757z"/>
	</g>
	<path style="opacity:0.2;fill:#222222;" d="M409.18,254.061c0,52.23-42.34,94.571-94.572,94.571H138.36   c-52.23,0-94.572-42.341-94.572-94.571H409.18z"/>
	<circle style="fill:#65513C;" cx="371.566" cy="230.026" r="8.139"/>
	<g>
		<path style="fill:#65513C;" d="M360.82,195.713c-4.143,0-7.5-3.358-7.5-7.5c0-24.534,19.959-44.494,44.494-44.494    c4.143,0,7.5,3.358,7.5,7.5s-3.357,7.5-7.5,7.5c-16.264,0-29.494,13.231-29.494,29.494    C368.32,192.356,364.963,195.713,360.82,195.713z"/>
		<path style="opacity:0.3;fill:#222222;" d="M397.815,143.719c-9.672,0-18.625,3.111-25.934,8.373    c0.248,5.552,2.463,10.591,5.969,14.435c5.258-4.843,12.27-7.808,19.965-7.808c4.143,0,7.5-3.358,7.5-7.5    S401.957,143.719,397.815,143.719z"/>
		<circle style="fill:#65513C;" cx="394.819" cy="151.056" r="17.464"/>
	</g>
</g>















</svg>
