<?xml version="1.0" encoding="iso-8859-1"?>
<!-- Generator: Adobe Illustrator 19.0.0, SVG Export Plug-In . SVG Version: 6.00 Build 0)  -->
<svg xmlns="http://www.w3.org/2000/svg" xmlns:xlink="http://www.w3.org/1999/xlink" version="1.1" id="Layer_1" x="0px" y="0px" viewBox="0 0 412.133 412.133" style="enable-background:new 0 0 412.133 412.133;" xml:space="preserve" width="512" height="512">
<g>
	<g>
		<path style="fill:#95D600;" d="M296.188,346.707c0-12.895-10.371-27.641-14.584-30.639c8.428-0.25,26.252,4.749,31.76,13.996    c1.297-1.5,7.129-12.996,5.186-15.994c7.455,1.249,14.908,11.495,17.176,18.492c4.213-4.999,12.098-18.492,16.85-20.991    c-0.647,4.247-0.861,20.495,1.947,23.245c2.809-5.247,21.709-7.625,25.277-3.749c-4.861,5.497-9.398,7.792-9.398,15.64    C370.4,346.707,310.447,346.707,296.188,346.707z"/>
	</g>
	<g>
		<rect x="21.275" y="65.426" style="fill:#333E48;" width="29.268" height="281.281"/>
		<rect x="21.275" y="192.099" style="opacity:0.5;fill:#222222;" width="29.268" height="13.301"/>
		<rect x="21.275" y="149.099" style="opacity:0.5;fill:#222222;" width="29.268" height="13.301"/>
		<rect x="21.275" y="106.099" style="opacity:0.5;fill:#222222;" width="29.268" height="13.301"/>
		<rect x="21.275" y="248.426" style="opacity:0.5;fill:#222222;" width="29.268" height="17.292"/>
		<g>
			<rect x="14.675" y="329.139" style="fill:#A4A9AD;" width="42.456" height="17.568"/>
			<rect x="14.675" y="329.139" style="opacity:0.2;fill:#222222;" width="21.227" height="17.568"/>
		</g>
	</g>
	<g>
		<rect x="361.598" y="65.426" style="fill:#333E48;" width="29.267" height="281.281"/>
		<rect x="361.598" y="192.099" style="opacity:0.5;fill:#222222;" width="29.267" height="13.301"/>
		<rect x="361.598" y="149.099" style="opacity:0.5;fill:#222222;" width="29.267" height="13.301"/>
		<rect x="361.598" y="106.099" style="opacity:0.5;fill:#222222;" width="29.267" height="13.301"/>
		<rect x="361.598" y="248.426" style="opacity:0.5;fill:#222222;" width="29.267" height="17.292"/>
		<g>
			<rect x="354.996" y="329.139" style="fill:#A4A9AD;" width="42.457" height="17.568"/>
			<rect x="354.996" y="329.139" style="opacity:0.2;fill:#222222;" width="21.229" height="17.568"/>
		</g>
	</g>
	<g>
		<rect y="219.781" style="fill:#D8D2C4;" width="412.133" height="32.355"/>
		<rect y="219.781" style="opacity:0.1;fill:#222222;" width="206.063" height="32.355"/>
	</g>
	<g>
		<rect x="10.356" y="172.798" style="fill:#D8D2C4;" width="391.419" height="26.602"/>
		<rect x="10.356" y="172.798" style="opacity:0.1;fill:#222222;" width="195.71" height="26.602"/>
		<circle style="fill:#333E48;" cx="35.909" cy="186.099" r="4.824"/>
		<circle style="fill:#333E48;" cx="376.224" cy="186.099" r="4.823"/>
	</g>
	<g>
		<rect x="10.356" y="129.798" style="fill:#D8D2C4;" width="391.419" height="26.602"/>
		<rect x="10.356" y="129.798" style="opacity:0.1;fill:#222222;" width="195.71" height="26.602"/>
		<circle style="fill:#333E48;" cx="35.909" cy="143.099" r="4.824"/>
		<circle style="fill:#333E48;" cx="376.224" cy="143.099" r="4.823"/>
	</g>
	<g>
		<rect x="10.356" y="86.798" style="fill:#D8D2C4;" width="391.419" height="26.602"/>
		<rect x="10.356" y="86.798" style="opacity:0.1;fill:#222222;" width="195.71" height="26.602"/>
		<circle style="fill:#333E48;" cx="35.909" cy="100.099" r="4.824"/>
		<circle style="fill:#333E48;" cx="376.224" cy="100.099" r="4.823"/>
	</g>
	<path style="fill:#95D600;" d="M46.86,346.707c0-12.371-9.949-26.515-13.989-29.39c8.083-0.241,25.181,4.555,30.466,13.425   c1.243-1.44,6.838-12.467,4.973-15.343c7.15,1.197,14.3,11.026,16.476,17.739c4.042-4.796,11.605-17.739,16.165-20.137   c-0.622,4.074-0.829,18.219,1.866,20.857c2.693-5.035,18.03-11.028,24.248-11.987c-4.664,5.273-9.015,17.307-9.015,24.835   C118.05,346.707,60.539,346.707,46.86,346.707z"/>
</g>















</svg>
