<?xml version="1.0" encoding="iso-8859-1"?>
<!-- Generator: Adobe Illustrator 19.0.0, SVG Export Plug-In . SVG Version: 6.00 Build 0)  -->
<svg xmlns="http://www.w3.org/2000/svg" xmlns:xlink="http://www.w3.org/1999/xlink" version="1.1" id="Layer_1" x="0px" y="0px" viewBox="0 0 449.168 449.168" style="enable-background:new 0 0 449.168 449.168;" xml:space="preserve" width="512" height="512">
<g>
	<g>
		<rect x="204.522" y="273.669" style="fill:#997668;" width="40.124" height="175.499"/>
		<rect x="204.522" y="277.141" style="opacity:0.2;fill:#222222;" width="20.062" height="172.027"/>
		<rect x="204.522" y="273.669" style="opacity:0.2;fill:#222222;" width="40.124" height="20.017"/>
	</g>
	<polygon style="fill:#997668;" points="330.47,79.209 224.584,21.913 118.698,79.209 118.698,254.563 330.47,254.563  "/>
	<circle style="fill:#333E48;" cx="224.584" cy="145.498" r="42.017"/>
	<g>
		<circle style="fill:#F5CFB2;" cx="224.584" cy="217.068" r="12.417"/>
	</g>
	<polygon style="opacity:0.2;fill:#222222;" points="118.698,79.209 118.698,254.563 224.584,254.563 224.584,21.913  "/>
	<polygon style="opacity:0.2;fill:#222222;" points="224.584,21.913 118.698,79.209 118.698,116.749 224.584,59.453 330.47,116.749    330.47,79.209  "/>
	<g>
		<polygon style="fill:#FF5959;" points="344.068,108.48 224.584,43.826 105.1,108.48 86.756,74.58 224.584,0 362.412,74.58   "/>
		<polygon style="opacity:0.3;fill:#222222;" points="86.756,74.58 105.1,108.48 224.584,43.826 224.584,0   "/>
	</g>
	<g>
		<rect x="90.518" y="254.563" style="fill:#F5CFB2;" width="268.132" height="26.746"/>
		<rect x="90.518" y="254.563" style="opacity:0.2;fill:#222222;" width="134.066" height="26.746"/>
	</g>
</g>















</svg>
