<?xml version="1.0" encoding="iso-8859-1"?>
<!-- Generator: Adobe Illustrator 19.0.0, SVG Export Plug-In . SVG Version: 6.00 Build 0)  -->
<svg xmlns="http://www.w3.org/2000/svg" xmlns:xlink="http://www.w3.org/1999/xlink" version="1.1" id="Layer_1" x="0px" y="0px" viewBox="0 0 405.361 405.361" style="enable-background:new 0 0 405.361 405.361;" xml:space="preserve" width="512" height="512">
<g>
	<g>
		<path style="fill:#229CD2;" d="M132.657,50.647c-2.115-1.397-4.294-2.708-6.535-3.919c-0.005-0.003-0.012-0.006-0.018-0.009    h-0.001c-12.071-6.515-25.886-10.215-40.565-10.215C38.297,36.504,0,74.802,0,122.044c0,27.977,13.432,52.814,34.197,68.421    c0.001,0,0.002,0.001,0.003,0.002c0.91,0.684,1.836,1.347,2.774,1.994c22.474,16.832,24.384,37.635,13.391,48.628l0.003,0.006    c-12.509,12.719-20.235,30.157-20.235,49.405c0,38.921,31.552,70.473,70.473,70.473c14.479,0,27.935-4.373,39.129-11.861    l0.004,0.003c0.02-0.014,0.04-0.029,0.059-0.042c13.063-9.847,49.337-37.005,52.074-42.023V107.479    C187.749,98.315,162.546,69.503,132.657,50.647z"/>
		<path style="opacity:0.1;fill:#222222;" d="M55.143,215.238c3.558,10.104,1.497,19.576-4.778,25.852l0.003,0.006    c-12.509,12.719-20.235,30.157-20.235,49.405c0,38.921,31.552,70.473,70.473,70.473c14.479,0,27.935-4.373,39.129-11.861    l0.004,0.003c0.02-0.014,0.04-0.029,0.059-0.042c13.063-9.847,49.337-37.005,52.074-42.023v-91.813H55.143z"/>
		<circle style="fill:#67CFE3;" cx="80.838" cy="116.121" r="42.252"/>
		<circle style="fill:#67CFE3;" cx="95.936" cy="304.655" r="32.754"/>
		<circle style="fill:#67CFE3;" cx="111.933" cy="241.376" r="13.757"/>
		<circle style="fill:#67CFE3;" cx="84.42" cy="191.736" r="13.757"/>
		<circle style="fill:#67CFE3;" cx="139.846" cy="159.485" r="13.756"/>
		<path style="opacity:0.2;fill:#222222;" d="M156.498,68.347v268.096c15.276-11.649,33.467-25.895,35.374-29.392V107.479    C188.914,100.904,175.103,84.216,156.498,68.347z"/>
	</g>
	<g>
		<path style="fill:#229CD2;" d="M272.704,50.647c2.115-1.397,4.294-2.708,6.535-3.919c0.005-0.003,0.012-0.006,0.018-0.009h0    c12.071-6.515,25.886-10.215,40.565-10.215c47.242,0,85.539,38.298,85.539,85.54c0,27.977-13.432,52.814-34.197,68.421    c-0.001,0-0.002,0.001-0.003,0.002c-0.91,0.684-1.836,1.347-2.773,1.994c-22.474,16.832-24.384,37.635-13.391,48.628l-0.003,0.006    c12.509,12.719,20.235,30.157,20.235,49.405c0,38.921-31.552,70.473-70.473,70.473c-14.479,0-27.935-4.373-39.129-11.861    l-0.004,0.003c-0.02-0.014-0.04-0.029-0.059-0.042c-13.063-9.847-49.337-37.005-52.074-42.023V107.479    C217.612,98.315,242.815,69.503,272.704,50.647z"/>
		<path style="opacity:0.1;fill:#222222;" d="M350.219,215.238c-3.558,10.104-1.497,19.576,4.778,25.852l-0.003,0.006    c12.509,12.719,20.235,30.157,20.235,49.405c0,38.921-31.552,70.473-70.473,70.473c-14.479,0-27.935-4.373-39.129-11.861    l-0.004,0.003c-0.02-0.014-0.04-0.029-0.059-0.042c-13.063-9.847-49.337-37.005-52.074-42.023v-91.813H350.219z"/>
		<circle style="fill:#67CFE3;" cx="324.524" cy="116.121" r="42.252"/>
		<circle style="fill:#67CFE3;" cx="309.425" cy="304.655" r="32.754"/>
		<circle style="fill:#67CFE3;" cx="293.428" cy="241.376" r="13.757"/>
		<circle style="fill:#67CFE3;" cx="320.941" cy="191.736" r="13.757"/>
		<circle style="fill:#67CFE3;" cx="265.515" cy="159.485" r="13.756"/>
		<path style="opacity:0.2;fill:#222222;" d="M248.863,68.347v268.096c-15.276-11.649-33.467-25.895-35.374-29.392V107.479    C216.447,100.904,230.258,84.216,248.863,68.347z"/>
	</g>
	<g>
		<path style="fill:#3E4543;" d="M225.281,346.257c0,12.481-10.119,22.601-22.6,22.601c-12.481,0-22.6-10.119-22.6-22.601V64.727    c0-12.481,10.119-22.6,22.6-22.6c12.481,0,22.6,10.118,22.6,22.6V346.257z"/>
		<path style="opacity:0.7;fill:#D1D3D3;" d="M225.281,129.639V64.727c0-12.481-10.119-22.6-22.6-22.6    c-12.481,0-22.6,10.118-22.6,22.6v64.912H225.281z"/>
		<rect x="180.081" y="158.373" style="opacity:0.7;fill:#D1D3D3;" width="45.2" height="24.766"/>
		<rect x="180.081" y="202.854" style="opacity:0.7;fill:#D1D3D3;" width="45.2" height="24.766"/>
	</g>
</g>















</svg>
