<?xml version="1.0" encoding="iso-8859-1"?>
<!-- Generator: Adobe Illustrator 19.0.0, SVG Export Plug-In . SVG Version: 6.00 Build 0)  -->
<svg xmlns="http://www.w3.org/2000/svg" xmlns:xlink="http://www.w3.org/1999/xlink" version="1.1" id="Layer_1" x="0px" y="0px" viewBox="0 0 442.465 442.465" style="enable-background:new 0 0 442.465 442.465;" xml:space="preserve" width="512" height="512">
<g>
	<path style="fill:#00953A;" d="M389.693,284.217c-19.685,0-36.821,10.881-45.744,26.952H182.782   c-49.451,0-89.684-40.232-89.684-89.684c0-49.452,40.232-89.684,89.684-89.684h220.864c21.438,0,38.818-17.38,38.818-38.819   c0-21.439-17.38-38.819-38.818-38.819H182.782c-92.262,0-167.321,75.06-167.321,167.321c0,92.261,75.06,167.321,167.321,167.321   h206.911c28.881,0,52.295-23.413,52.295-52.294C441.988,307.63,418.574,284.217,389.693,284.217z"/>
	<path style="fill:#00AC60;" d="M373.984,370.539H182.782c-89.196,0-162.31-70.157-167.068-158.187   c-0.164,3.025-0.252,6.068-0.252,9.134c0,92.261,75.06,167.321,167.32,167.321h191.202c5.045,0,9.134-4.089,9.134-9.134   C383.118,374.628,379.029,370.539,373.984,370.539z M441.373,83.85c-4.108,17.03-19.435,29.685-37.727,29.685H182.782   c-49.451,0-89.683,40.232-89.683,89.684c0,3.083,0.156,6.13,0.462,9.134c4.591-45.178,42.853-80.55,89.221-80.55h220.864   c21.438,0,38.818-17.38,38.818-38.819C442.465,89.836,442.08,86.78,441.373,83.85z"/>
	<path style="opacity:0.3;fill:#222222;" d="M182.782,349.806c-70.869,0-128.319-57.451-128.319-128.32H15.461   c0,92.261,75.06,167.321,167.321,167.321h206.911c24.287,0,44.702-16.559,50.585-39.001H182.782z"/>
	<path style="opacity:0.3;fill:#222222;" d="M182.782,93.166c-70.869,0-128.319,57.45-128.319,128.319h38.636   c0-49.452,40.232-89.684,89.684-89.684h220.864c21.377,0,38.715-17.281,38.813-38.636H182.782z"/>
	<g>
		<circle style="fill:#FED771;" cx="260.383" cy="353.481" r="14.462"/>
		<circle style="fill:#FFFFFF;" cx="235.55" cy="333.406" r="5.899"/>
		<circle style="fill:#FFFFFF;" cx="285.216" cy="333.406" r="5.899"/>
	</g>
	<g>
		<circle style="fill:#FED771;" cx="136.397" cy="346.559" r="14.462"/>
		<circle style="fill:#FFFFFF;" cx="122.199" cy="317.958" r="5.9"/>
		<circle style="fill:#FFFFFF;" cx="167.338" cy="338.669" r="5.899"/>
	</g>
	<g>
		<circle style="fill:#FED771;" cx="54.919" cy="272.999" r="14.462"/>
		<path style="fill:#FFFFFF;" d="M66.078,247.762c3.002-1.264,4.411-4.725,3.147-7.727c-1.263-3.003-4.723-4.411-7.727-3.147    c-3.002,1.262-4.412,4.723-3.147,7.724C59.615,247.615,63.074,249.025,66.078,247.762z"/>
		<circle style="fill:#FFFFFF;" cx="83.054" cy="288.1" r="5.899"/>
	</g>
	<g>
		<circle style="fill:#FED771;" cx="260.383" cy="101.002" r="14.462"/>
		<circle style="fill:#FFFFFF;" cx="285.216" cy="80.927" r="5.899"/>
		<circle style="fill:#FFFFFF;" cx="235.55" cy="80.927" r="5.899"/>
	</g>
	<g>
		<circle style="fill:#FED771;" cx="388.551" cy="101.002" r="14.462"/>
		<circle style="fill:#FFFFFF;" cx="363.718" cy="80.927" r="5.899"/>
		<circle style="fill:#FFFFFF;" cx="413.383" cy="80.927" r="5.899"/>
	</g>
	<g>
		<circle style="fill:#FED771;" cx="141.338" cy="111.02" r="14.463"/>
		<circle style="fill:#FFFFFF;" cx="155.537" cy="82.419" r="5.899"/>
		<circle style="fill:#FFFFFF;" cx="110.396" cy="103.13" r="5.899"/>
	</g>
	<g>
		<circle style="fill:#FED771;" cx="54.919" cy="169.972" r="14.462"/>
		<path style="fill:#FFFFFF;" d="M66.078,195.21c3.002,1.264,4.411,4.725,3.147,7.727c-1.263,3.003-4.723,4.412-7.727,3.147    c-3.002-1.261-4.412-4.722-3.147-7.724C59.615,195.356,63.074,193.946,66.078,195.21z"/>
		<circle style="fill:#FFFFFF;" cx="83.054" cy="154.872" r="5.899"/>
	</g>
	<circle style="fill:#333E48;" cx="410.541" cy="314.663" r="7.78"/>
	<g>
		<path style="fill:#95D600;" d="M326.518,145.849c-4.143,0-7.5-3.358-7.5-7.5v-90.73c0-4.142,3.357-7.5,7.5-7.5    c4.142,0,7.5,3.358,7.5,7.5v90.73C334.018,142.491,330.659,145.849,326.518,145.849z"/>
		<path style="fill:#95D600;" d="M199.258,145.849c-4.142,0-7.5-3.358-7.5-7.5v-90.73c0-4.142,3.358-7.5,7.5-7.5    c4.143,0,7.5,3.358,7.5,7.5v90.73C206.758,142.491,203.4,145.849,199.258,145.849z"/>
		<path style="fill:#95D600;" d="M118.403,166.184c-1.919,0-3.839-0.732-5.303-2.197L58.203,109.09c-2.93-2.929-2.93-7.678,0-10.606    c2.929-2.929,7.678-2.929,10.606,0l54.897,54.898c2.929,2.929,2.929,7.678,0,10.606    C122.242,165.452,120.323,166.184,118.403,166.184z"/>
		<path style="fill:#95D600;" d="M124.38,172.162c-1.919,0-3.839-0.732-5.303-2.197l-66.852-66.852c-2.93-2.929-2.93-7.678,0-10.607    c2.929-2.929,7.678-2.929,10.606,0l66.852,66.852c2.929,2.929,2.929,7.678,0,10.606C128.219,171.429,126.3,172.162,124.38,172.162    z"/>
		<path style="fill:#95D600;" d="M54.528,351.662c-1.919,0-3.839-0.732-5.303-2.197c-2.93-2.929-2.93-7.678,0-10.606l66.852-66.852    c2.929-2.929,7.678-2.929,10.606,0c2.929,2.929,2.929,7.678,0,10.606l-66.852,66.852C58.367,350.93,56.448,351.662,54.528,351.662    z"/>
		<path style="fill:#95D600;" d="M101.059,228.986H7.5c-4.143,0-7.5-3.358-7.5-7.5s3.357-7.5,7.5-7.5h93.559    c4.143,0,7.5,3.358,7.5,7.5S105.201,228.986,101.059,228.986z"/>
		<path style="fill:#95D600;" d="M326.518,402.347c-4.143,0-7.5-3.358-7.5-7.5v-90.73c0-4.142,3.357-7.5,7.5-7.5    c4.142,0,7.5,3.358,7.5,7.5v90.73C334.018,398.989,330.659,402.347,326.518,402.347z"/>
		<path style="fill:#95D600;" d="M199.258,402.347c-4.142,0-7.5-3.358-7.5-7.5v-90.73c0-4.142,3.358-7.5,7.5-7.5    c4.143,0,7.5,3.358,7.5,7.5v90.73C206.758,398.989,203.4,402.347,199.258,402.347z"/>
	</g>
</g>















</svg>
