<?xml version="1.0" encoding="iso-8859-1"?>
<!-- Generator: Adobe Illustrator 19.0.0, SVG Export Plug-In . SVG Version: 6.00 Build 0)  -->
<svg xmlns="http://www.w3.org/2000/svg" xmlns:xlink="http://www.w3.org/1999/xlink" version="1.1" id="Layer_1" x="0px" y="0px" viewBox="0 0 467.145 467.145" style="enable-background:new 0 0 467.145 467.145;" xml:space="preserve" width="512" height="512">
<g>
	<g>
		
			<line style="fill:none;stroke:#65513C;stroke-width:15;stroke-linejoin:round;stroke-miterlimit:10;" x1="288.201" y1="104.398" x2="293.24" y2="81.463"/>
		<path style="fill:none;stroke:#65513C;stroke-width:15;stroke-linecap:round;stroke-linejoin:round;stroke-miterlimit:10;" d="    M342.467,71.313c-9.408,7.613-21.389,12.174-34.434,12.174c-30.255,0-54.781-24.527-54.781-54.781    c0-7.518,1.515-14.684,4.256-21.205"/>
		<path style="fill:none;stroke:#65513C;stroke-width:15;stroke-linecap:round;stroke-linejoin:round;stroke-miterlimit:10;" d="    M282.423,35.572c0,11.732-8.429,21.496-19.561,23.563"/>
		<path style="fill:none;stroke:#65513C;stroke-width:15;stroke-linecap:round;stroke-linejoin:round;stroke-miterlimit:10;" d="    M303.292,44.792c-2.175,5.79-7.764,9.911-14.315,9.911c-4.384,0-8.337-1.846-11.125-4.802"/>
		<path style="fill:none;stroke:#65513C;stroke-width:15;stroke-linecap:round;stroke-linejoin:round;stroke-miterlimit:10;" d="    M328.722,79.275c-5.637-2.907-9.49-8.784-9.49-15.563c0-1.208,0.123-2.388,0.355-3.526"/>
	</g>
	<g>
		<path style="fill:#997668;" d="M120.712,252.391c-8.299,8.299-21.756,8.3-30.057,0c-14.142-14.145-17.56-38.662-7.247-48.976    c6.541,13.614,29.005,10.618,37.304,18.919C129.012,230.632,129.011,244.09,120.712,252.391z"/>
		<path style="fill:#F5CFB2;" d="M83.408,203.415c-10.313,10.314-6.895,34.831,7.247,48.976c8.301,8.3,21.758,8.299,30.057,0    C87.65,242.311,83.584,214.908,83.408,203.415z"/>
	</g>
	<g>
		<polygon style="fill:#997668;" points="303.718,467.145 287.388,467.145 278.714,290.064 312.391,290.064   "/>
		<polygon style="fill:#333E48;" points="286.384,446.648 287.388,467.145 303.718,467.145 304.722,446.648   "/>
		<polygon style="opacity:0.3;fill:#222222;" points="303.718,467.145 287.388,467.145 278.714,290.064 312.391,290.064   "/>
		<path style="opacity:0.2;fill:#222222;" d="M278.714,290.064l2.627,48.515c11.101-1.951,21.144-7,29.193-14.238l1.856-34.276    H278.714z"/>
	</g>
	<g>
		<path style="fill:#997668;" d="M161.737,276.67l-6.858,46.767c4.238,4.236,6.858,10.092,6.858,16.558    c0,12.932-10.484,23.417-23.417,23.417l8.674,103.733h16.33l6.55-82.484c26.128-3.928,46.162-26.469,46.162-53.691    C216.036,300.979,191.725,276.67,161.737,276.67z"/>
		<polygon style="fill:#333E48;" points="145.281,446.648 146.994,467.145 163.325,467.145 164.952,446.648   "/>
		<path style="opacity:0.3;fill:#222222;" d="M161.737,276.67l-6.858,46.767c4.238,4.236,6.858,10.092,6.858,16.558    c0,12.932-10.484,23.417-23.417,23.417l8.674,103.733h16.33l6.55-82.484c26.128-3.928,46.162-26.469,46.162-53.691    C216.036,300.979,191.725,276.67,161.737,276.67z"/>
		<path style="opacity:0.2;fill:#222222;" d="M161.737,276.67l-6.858,46.767c4.126,4.126,6.712,9.785,6.846,16.049h53.634    c0.437-2.775,0.678-5.617,0.678-8.517C216.036,300.979,191.725,276.67,161.737,276.67z"/>
	</g>
	<path style="fill:#997668;" d="M384.377,142.145c0-4.896-3.024-9.075-7.302-10.796l-0.001-0.008   c-9.022-4.173-66.258-27.733-75.223-30.433h0c-3.974-1.245-8.201-1.919-12.585-1.919c-23.207,0-42.02,18.811-42.02,42.02v78.93   h-92.464c-27.911,0-50.537,23.278-50.537,50.535c0,19.354,10.133,41.71,23.756,53.056c4.185,4.229,6.774,10.044,6.774,16.465   c0,12.932-10.484,23.417-23.417,23.417l8.673,103.733h16.33l6.55-82.484c26.128-3.928,46.162-26.469,46.162-53.691h63.537   l6.669,136.176h16.331l6.732-137.448c22.494-5.114,39.29-25.223,39.29-49.266V176.072c0-5.253,24.032-13.74,34.354-16.324   c6.039-1.514,17.384-4.103,24.973-9.394l0.009,0.02c0.021-0.021,0.039-0.046,0.06-0.065c0.003-0.002,0.005-0.004,0.007-0.005   l-0.001-0.002C383.1,148.201,384.377,145.322,384.377,142.145z"/>
	<polygon style="fill:#333E48;" points="258.276,446.648 259.28,467.145 275.61,467.145 276.614,446.648  "/>
	<path style="fill:#F5CFB2;" d="M384.377,142.145c0-4.896-3.024-9.075-7.302-10.796l-0.001-0.008   c-2.348-1.086-7.965-3.486-15.143-6.489c-9.25,10.295-15.295,23.519-16.59,38.112c4.053-1.383,7.852-2.517,10.645-3.216   c6.039-1.514,17.384-4.103,24.973-9.394l0.009,0.02c0.021-0.021,0.039-0.046,0.06-0.065c0.003-0.002,0.005-0.004,0.007-0.005   l-0.001-0.002C383.1,148.201,384.377,145.322,384.377,142.145z"/>
	<path style="fill:#F5CFB2;" d="M303.803,198.443l0.232,86.885c0,12.743-8.867,23.408-20.767,26.179l-0.89,18.181   c22.476-5.127,39.253-25.227,39.253-49.257V176.072c0-1.158,1.171-2.475,3.102-3.848   C312.752,174.936,303.803,185.639,303.803,198.443z"/>
	<circle style="fill:#333E48;" cx="298.35" cy="125.109" r="5.11"/>
	<path style="fill:#333E48;" d="M389.717,135.048c0-3.786-3.815-4.784-8.518-4.784c-4.704,0-8.517,0.998-8.517,4.784   c0,3.789,5.948,6.063,8.517,6.063C383.768,141.11,389.717,138.837,389.717,135.048z"/>
	<g>
		<path style="fill:#997668;" d="M267.372,130.124c-0.652,0.061-16.061,1.364-25.267-7.846c-9.209-9.208-7.909-24.615-7.848-25.268    l0.409-4.467l4.466-0.407c0.651-0.062,16.06-1.361,25.267,7.846c9.209,9.206,7.909,24.614,7.848,25.267l-0.409,4.467    L267.372,130.124z"/>
		<path style="fill:#F5CFB2;" d="M257.612,106.771c4.473,4.471,3.739,12.458,3.739,12.458s-7.986,0.733-12.458-3.74    c-4.474-4.474-3.74-12.459-3.74-12.459S253.138,102.297,257.612,106.771z"/>
		<path style="opacity:0.2;fill:#222222;" d="M261.351,119.229c0,0-7.986,0.733-12.458-3.74c-4.474-4.474-3.74-12.459-3.74-12.459    L261.351,119.229z"/>
	</g>
	<polygon style="fill:#333E48;" points="118.318,446.648 120.032,467.145 136.362,467.145 137.99,446.648  "/>
	<path style="opacity:0.1;fill:#222222;" d="M154.782,219.939c-27.911,0-50.537,23.278-50.537,50.535   c0,19.354,10.133,41.71,23.756,53.056c4.185,4.229,6.774,10.044,6.774,16.465c0,12.932-10.484,23.417-23.417,23.417l8.673,103.733   h16.33l6.55-82.484c26.128-3.928,46.162-26.469,46.162-53.691h35.959v-111.03H154.782z"/>
</g>















</svg>
