<?xml version="1.0" encoding="iso-8859-1"?>
<!-- Generator: Adobe Illustrator 19.0.0, SVG Export Plug-In . SVG Version: 6.00 Build 0)  -->
<svg xmlns="http://www.w3.org/2000/svg" xmlns:xlink="http://www.w3.org/1999/xlink" version="1.1" id="Layer_1" x="0px" y="0px" viewBox="0 0 449.406 449.406" style="enable-background:new 0 0 449.406 449.406;" xml:space="preserve" width="512" height="512">
<g>
	<g>
		<g>
			<polygon style="fill:#985F35;" points="118.209,409.17 118.209,177.872 68.986,177.872 68.986,409.169 48.866,429.289      138.329,429.289    "/>
			<polygon style="opacity:0.3;fill:#222222;" points="68.986,177.872 68.986,409.169 48.866,429.289 93.6,429.289 93.6,177.872         "/>
			<path style="opacity:0.3;fill:#222222;" d="M68.986,177.872v45.734c7.923,1.767,16.158,2.706,24.613,2.706     c8.454,0,16.688-0.938,24.609-2.705v-45.735H68.986z"/>
		</g>
		<g>
			<circle style="fill:#77BC1F;" cx="93.6" cy="113.716" r="93.6"/>
			<path style="opacity:0.5;fill:#218649;" d="M93.6,20.117c-51.692,0-93.6,41.906-93.6,93.6c0,51.693,41.907,93.599,93.6,93.599     V20.117z"/>
			<path style="opacity:0.8;fill:#218649;" d="M100.361,200.554c-51.693,0-93.6-41.907-93.6-93.6     c0-24.127,9.132-46.119,24.122-62.716C11.92,61.368,0,86.149,0,113.716c0,51.693,41.907,93.599,93.6,93.599     c27.567,0,52.349-11.919,69.478-30.884C146.48,191.423,124.488,200.554,100.361,200.554z"/>
		</g>
	</g>
	<g>
		<g>
			<polygon style="fill:#985F35;" points="380.416,409.17 380.416,177.872 331.193,177.872 331.193,409.169 311.073,429.289      400.536,429.289    "/>
			<polygon style="opacity:0.3;fill:#222222;" points="331.193,177.872 331.193,409.169 311.073,429.289 355.807,429.289      355.807,177.872    "/>
			<path style="opacity:0.3;fill:#222222;" d="M331.193,177.872v45.734c7.923,1.767,16.158,2.706,24.613,2.706     c8.454,0,16.688-0.938,24.609-2.705v-45.735H331.193z"/>
		</g>
		<g>
			<circle style="fill:#77BC1F;" cx="355.807" cy="113.716" r="93.6"/>
			<path style="opacity:0.5;fill:#218649;" d="M355.807,20.117c-51.692,0-93.6,41.906-93.6,93.6c0,51.693,41.907,93.599,93.6,93.599     V20.117z"/>
			<path style="opacity:0.8;fill:#218649;" d="M362.568,200.554c-51.693,0-93.6-41.907-93.6-93.6     c0-24.127,9.132-46.119,24.122-62.716c-18.964,17.129-30.884,41.911-30.884,69.478c0,51.693,41.907,93.599,93.6,93.599     c27.567,0,52.349-11.919,69.478-30.884C408.688,191.423,386.695,200.554,362.568,200.554z"/>
		</g>
	</g>
	<g>
		<path style="fill:#67CFE3;" d="M224.703,329.056c-32.538,0-67.752-6.399-92.042-14.022c0,39.167,43.604,69.325,92.042,69.325    s92.042-30.159,92.042-69.325C292.455,322.656,257.241,329.056,224.703,329.056z"/>
		<path style="opacity:0.2;fill:#222222;" d="M132.661,315.034c0,39.167,43.604,69.325,92.042,69.325v-55.303    C192.165,329.056,156.951,322.656,132.661,315.034z"/>
		<path style="opacity:0.2;fill:#222222;" d="M224.703,329.056c-32.538,0-67.752-6.399-92.042-14.022    c0,5.536,0.872,10.892,2.506,16.008c26.25,7.245,59.101,13.364,89.536,13.364s63.286-6.12,89.536-13.364    c1.634-5.116,2.506-10.472,2.506-16.008C292.455,322.656,257.241,329.056,224.703,329.056z"/>
	</g>
	<path style="fill:#F5CFB2;" d="M224.703,334.611c-53.707,0-114.946-19.055-134.139-29.722c-3.62-2.012-4.924-6.579-2.912-10.199   c2.012-3.62,6.577-4.925,10.199-2.912c17.477,9.714,76.446,27.833,126.852,27.833s109.375-18.12,126.852-27.833   c3.621-2.012,8.188-0.708,10.199,2.912c2.012,3.621,0.708,8.187-2.912,10.199C339.649,315.556,278.41,334.611,224.703,334.611z"/>
	<path style="opacity:0.2;fill:#222222;" d="M97.852,291.778c-3.622-2.013-8.188-0.708-10.199,2.912   c-2.012,3.621-0.708,8.187,2.912,10.199c1.976,1.098,4.404,2.287,7.218,3.533h47.524   C123.726,302.867,106.131,296.38,97.852,291.778z"/>
	<path style="opacity:0.2;fill:#222222;" d="M351.555,291.778c3.622-2.013,8.188-0.708,10.199,2.912   c2.012,3.621,0.708,8.187-2.912,10.199c-1.976,1.098-4.404,2.287-7.218,3.533H304.1   C325.681,302.867,343.275,296.38,351.555,291.778z"/>
	<g>
		<path style="fill:#F5CFB2;" d="M121.632,288.457H65.563c-4.143,0-7.5-3.358-7.5-7.5c0-4.142,3.357-7.5,7.5-7.5h56.068    c4.143,0,7.5,3.358,7.5,7.5C129.132,285.1,125.774,288.457,121.632,288.457z"/>
		<path style="opacity:0.2;fill:#222222;" d="M65.563,273.457c-4.143,0-7.5,3.358-7.5,7.5c0,4.142,3.357,7.5,7.5,7.5H93.6v-15    H65.563z"/>
	</g>
	<g>
		<path style="fill:#997668;" d="M121.632,302.833H65.563c-4.143,0-7.5-3.358-7.5-7.5s3.357-7.5,7.5-7.5h56.068    c4.143,0,7.5,3.358,7.5,7.5S125.774,302.833,121.632,302.833z"/>
		<path style="opacity:0.2;fill:#222222;" d="M65.563,287.833c-4.143,0-7.5,3.358-7.5,7.5s3.357,7.5,7.5,7.5H93.6v-15H65.563z"/>
	</g>
	<g>
		<path style="fill:#F5CFB2;" d="M383.843,288.457h-56.068c-4.143,0-7.5-3.358-7.5-7.5c0-4.142,3.357-7.5,7.5-7.5h56.068    c4.143,0,7.5,3.358,7.5,7.5C391.343,285.1,387.985,288.457,383.843,288.457z"/>
		<path style="opacity:0.2;fill:#222222;" d="M327.774,273.457c-4.143,0-7.5,3.358-7.5,7.5c0,4.142,3.357,7.5,7.5,7.5h28.036v-15    H327.774z"/>
	</g>
	<g>
		<path style="fill:#997668;" d="M383.843,302.833h-56.068c-4.143,0-7.5-3.358-7.5-7.5s3.357-7.5,7.5-7.5h56.068    c4.143,0,7.5,3.358,7.5,7.5S387.985,302.833,383.843,302.833z"/>
		<path style="opacity:0.2;fill:#222222;" d="M327.774,287.833c-4.143,0-7.5,3.358-7.5,7.5s3.357,7.5,7.5,7.5h28.036v-15H327.774z"/>
	</g>
</g>















</svg>
