<?xml version="1.0" encoding="iso-8859-1"?>
<!-- Generator: Adobe Illustrator 19.0.0, SVG Export Plug-In . SVG Version: 6.00 Build 0)  -->
<svg xmlns="http://www.w3.org/2000/svg" xmlns:xlink="http://www.w3.org/1999/xlink" version="1.1" id="Layer_1" x="0px" y="0px" viewBox="0 0 406.187 406.187" style="enable-background:new 0 0 406.187 406.187;" xml:space="preserve" width="512" height="512">
<g>
	<rect x="155.382" y="305.018" style="fill:#333E48;" width="15" height="41.39"/>
	<rect x="235.804" y="305.018" style="fill:#333E48;" width="15" height="41.39"/>
	<g>
		<path style="fill:#65513C;" d="M151.547,354.64v41.169c0,5.707,4.669,10.378,10.378,10.378h82.338    c5.707,0,10.377-4.67,10.377-10.378V354.64H151.547z"/>
		<path style="opacity:0.3;fill:#222222;" d="M151.547,354.64v41.169c0,5.707,4.669,10.378,10.378,10.378h41.172V354.64H151.547z"/>
		<rect x="151.547" y="354.64" style="opacity:0.3;fill:#222222;" width="103.092" height="23.025"/>
	</g>
	<g>
		<path style="fill:#FF5959;" d="M151.726,306.646c0-39.549-86.843-73.681-86.843-168.437C64.883,61.879,126.763,0,203.093,0    c76.33,0,138.21,61.879,138.21,138.209c0,94.756-86.843,128.888-86.843,168.437H151.726z"/>
		<path style="fill:#229CD2;" d="M203.093,0c-14.298,0-28.089,2.172-41.062,6.203c8.294,14.041,23.574,23.464,41.062,23.464    c17.488,0,32.769-9.424,41.062-23.464C231.183,2.172,217.392,0,203.093,0z"/>
		<path style="fill:#FFC843;" d="M87.755,215.755h230.676c5.764-9.133,10.901-19.107,14.84-30.154H72.917    C76.853,196.648,81.992,206.623,87.755,215.755z M339.592,116.453H66.593c-1.121,7.088-1.71,14.353-1.71,21.756    c0,2.854,0.084,5.651,0.236,8.397h275.949c0.15-2.746,0.234-5.543,0.234-8.397C341.303,130.806,340.714,123.541,339.592,116.453z"/>
		<path style="opacity:0.3;fill:#222222;" d="M64.883,138.209c0,94.756,86.843,128.888,86.843,168.437h51.367V0    C126.763,0,64.883,61.879,64.883,138.209z"/>
	</g>
	<g>
		<path style="fill:#B08876;" d="M254.639,364.498H151.547c-5.445,0-9.859-4.414-9.859-9.858c0-5.445,4.414-9.859,9.859-9.859    h103.092c5.445,0,9.858,4.414,9.858,9.859C264.498,360.084,260.085,364.498,254.639,364.498z"/>
		<path style="opacity:0.2;" d="M151.547,344.781c-5.445,0-9.859,4.414-9.859,9.859c0,5.444,4.414,9.858,9.859,9.858h51.549v-19.717    H151.547z"/>
	</g>
</g>















</svg>
