<?xml version="1.0" encoding="iso-8859-1"?>
<!-- Generator: Adobe Illustrator 19.0.0, SVG Export Plug-In . SVG Version: 6.00 Build 0)  -->
<svg xmlns="http://www.w3.org/2000/svg" xmlns:xlink="http://www.w3.org/1999/xlink" version="1.1" id="Layer_1" x="0px" y="0px" viewBox="0 0 435.864 435.864" style="enable-background:new 0 0 435.864 435.864;" xml:space="preserve" width="512" height="512">
<g>
	<g>
		<path style="fill:#00953A;" d="M405.389,248c33.574-33.573,30.395-91.181,30.395-91.181s-57.609-3.178-91.18,30.394    c-33.572,33.571-30.394,91.181-30.394,91.181S371.818,281.572,405.389,248z"/>
		<path style="opacity:0.2;fill:#222222;" d="M314.209,278.393c0,0,57.609,3.179,91.18-30.393    c33.574-33.573,30.395-91.181,30.395-91.181L314.209,278.393z"/>
	</g>
	<g>
		<path style="fill:#CFD9E6;" d="M232.828,191.237c-13.404-47.73-77.926-128.838-125.654-115.435S46.582,192.046,59.986,239.777    c13.404,47.729,62.963,75.556,110.691,62.152C218.406,288.525,246.232,238.967,232.828,191.237z"/>
		<g>
			<circle style="fill:#6A86B8;" cx="118.255" cy="217.606" r="5.618"/>
			<path style="fill:#6A86B8;" d="M157.66,123.08c-0.84-2.988-3.941-4.729-6.928-3.89c-2.99,0.839-4.73,3.941-3.891,6.928     c0.838,2.988,3.941,4.73,6.928,3.891C156.758,129.17,158.5,126.069,157.66,123.08z"/>
			<circle style="fill:#6A86B8;" cx="190.907" cy="189.659" r="5.618"/>
			<circle style="fill:#6A86B8;" cx="94.755" cy="108.516" r="4.369"/>
			<circle style="fill:#6A86B8;" cx="79.545" cy="185.288" r="4.37"/>
			<circle style="fill:#6A86B8;" cx="218.48" cy="227.424" r="5.619"/>
			<circle style="fill:#6A86B8;" cx="146.605" cy="271.802" r="7.585"/>
		</g>
		<path style="opacity:0.2;fill:#67CFE3;" d="M107.174,75.802C59.445,89.205,46.582,192.046,59.986,239.777    c13.404,47.729,62.963,75.556,110.691,62.152L107.174,75.802z"/>
		<path style="opacity:0.1;fill:#222222;" d="M232.828,191.237c-3.963-14.112-12.396-31.143-23.543-47.787    c-12.881,27.503-20.627,58.119-20.627,79.88c0,21.505,7.57,41.236,20.18,56.694C231.738,257.826,242.059,224.099,232.828,191.237z    "/>
	</g>
	<g>
		<path style="fill:#00953A;" d="M35.795,267.717C2.223,234.145,5.4,176.537,5.4,176.537s57.609-3.178,91.182,30.393    c33.57,33.571,30.393,91.181,30.393,91.181S69.367,301.289,35.795,267.717z"/>
		<path style="opacity:0.2;fill:#222222;" d="M126.975,298.111c0,0-57.607,3.179-91.18-30.394    C2.223,234.145,5.4,176.537,5.4,176.537L126.975,298.111z"/>
	</g>
	<g>
		<path style="fill:#D5DEE9;" d="M384.623,223.33c0-49.577-40.191-145.109-89.766-145.109s-89.766,95.532-89.766,145.109    c0,49.576,40.191,89.765,89.766,89.765S384.623,272.906,384.623,223.33z"/>
		<g>
			<circle style="fill:#6A86B8;" cx="267.186" cy="217.74" r="5.619"/>
			<circle style="fill:#6A86B8;" cx="325.061" cy="137.388" r="5.619"/>
			<circle style="fill:#6A86B8;" cx="274.055" cy="106.358" r="4.369"/>
			<circle style="fill:#6A86B8;" cx="347.391" cy="200.027" r="4.369"/>
			<circle style="fill:#6A86B8;" cx="238.655" cy="176.16" r="4.368"/>
			<circle style="fill:#6A86B8;" cx="361.023" cy="238.663" r="5.619"/>
			<circle style="fill:#6A86B8;" cx="279.828" cy="277.582" r="7.586"/>
		</g>
		<path style="opacity:0.2;fill:#67CFE3;" d="M294.857,78.221c-49.574,0-89.766,95.532-89.766,145.109    c0,49.576,40.191,89.765,89.766,89.765V78.221z"/>
	</g>
	<g>
		<g>
			<path style="fill:#C59B82;" d="M408.119,247.497c9.162,0,16.59,7.427,16.59,16.588v31.096c0,36.647-29.709,66.354-66.356,66.354     h-280.4c-36.647,0-66.354-29.708-66.354-66.354v-31.096c0-9.161,7.428-16.588,16.588-16.588H408.119z"/>
			<path style="opacity:0.2;fill:#222222;" d="M28.188,247.497c-9.16,0-16.588,7.427-16.588,16.588v31.096     c0,36.647,29.707,66.354,66.354,66.354h140.201V247.497H28.188z"/>
		</g>
		<g>
			
				<line style="fill:none;stroke:#F5CFB2;stroke-width:15;stroke-linecap:round;stroke-linejoin:round;stroke-miterlimit:10;" x1="308.346" y1="275.095" x2="348.228" y2="246.306"/>
			
				<line style="fill:none;stroke:#F5CFB2;stroke-width:15;stroke-linecap:round;stroke-linejoin:round;stroke-miterlimit:10;" x1="355.404" y1="295.794" x2="393.176" y2="269.997"/>
			
				<line style="fill:none;stroke:#F5CFB2;stroke-width:15;stroke-linecap:round;stroke-linejoin:round;stroke-miterlimit:10;" x1="294.857" y1="350.266" x2="338.332" y2="335.107"/>
			
				<line style="fill:none;stroke:#F5CFB2;stroke-width:15;stroke-linecap:round;stroke-linejoin:round;stroke-miterlimit:10;" x1="243.023" y1="269.997" x2="267.186" y2="281.983"/>
			
				<line style="fill:none;stroke:#F5CFB2;stroke-width:15;stroke-linecap:round;stroke-linejoin:round;stroke-miterlimit:10;" x1="144.639" y1="342.686" x2="170.678" y2="329.487"/>
			
				<line style="fill:none;stroke:#F5CFB2;stroke-width:15;stroke-linecap:round;stroke-linejoin:round;stroke-miterlimit:10;" x1="7.5" y1="280.111" x2="46.5" y2="304.517"/>
			
				<line style="fill:none;stroke:#65513C;stroke-width:15;stroke-linecap:round;stroke-linejoin:round;stroke-miterlimit:10;" x1="46.5" y1="351.932" x2="83.916" y2="335.107"/>
			
				<line style="fill:none;stroke:#65513C;stroke-width:15;stroke-linecap:round;stroke-linejoin:round;stroke-miterlimit:10;" x1="91" y1="271.802" x2="139.018" y2="247.497"/>
			
				<line style="fill:none;stroke:#65513C;stroke-width:15;stroke-linecap:round;stroke-linejoin:round;stroke-miterlimit:10;" x1="170.678" y1="285.167" x2="212.428" y2="299.589"/>
			
				<line style="fill:none;stroke:#65513C;stroke-width:15;stroke-linecap:round;stroke-linejoin:round;stroke-miterlimit:10;" x1="218.48" y1="350.266" x2="255.104" y2="335.107"/>
			
				<line style="fill:none;stroke:#65513C;stroke-width:15;stroke-linecap:round;stroke-linejoin:round;stroke-miterlimit:10;" x1="377" y1="318.932" x2="411.355" y2="335.107"/>
		</g>
	</g>
</g>















</svg>
