<?xml version="1.0" encoding="iso-8859-1"?>
<!-- Generator: Adobe Illustrator 19.0.0, SVG Export Plug-In . SVG Version: 6.00 Build 0)  -->
<svg xmlns="http://www.w3.org/2000/svg" xmlns:xlink="http://www.w3.org/1999/xlink" version="1.1" id="Layer_1" x="0px" y="0px" viewBox="0 0 382.262 382.262" style="enable-background:new 0 0 382.262 382.262;" xml:space="preserve" width="512" height="512">
<g>
	<g>
		<circle style="fill:#333E48;" cx="68.162" cy="348.797" r="33.464"/>
		<circle style="fill:#A4A9AD;" cx="68.162" cy="348.797" r="9.164"/>
		<path style="opacity:0.5;fill:#222222;" d="M68.161,315.333c-18.482,0-33.464,14.982-33.464,33.464    c0,18.482,14.982,33.465,33.464,33.465V315.333z"/>
		<path style="opacity:0.5;fill:#222222;" d="M68.161,315.333c-17.181,0-31.328,12.948-33.237,29.618h66.476    C99.49,328.281,85.342,315.333,68.161,315.333z"/>
	</g>
	<g>
		<circle style="fill:#333E48;" cx="145.341" cy="348.797" r="33.464"/>
		<circle style="fill:#A4A9AD;" cx="145.341" cy="348.797" r="9.164"/>
		<path style="opacity:0.5;fill:#222222;" d="M145.341,315.333c-18.481,0-33.464,14.982-33.464,33.464    c0,18.482,14.982,33.465,33.464,33.465V315.333z"/>
		<path style="opacity:0.5;fill:#222222;" d="M145.341,315.333c-17.181,0-31.328,12.948-33.237,29.618h66.476    C176.67,328.281,162.521,315.333,145.341,315.333z"/>
	</g>
	<g>
		<circle style="fill:#333E48;" cx="222.521" cy="348.797" r="33.464"/>
		<circle style="fill:#A4A9AD;" cx="222.521" cy="348.797" r="9.164"/>
		<path style="opacity:0.5;fill:#222222;" d="M222.52,315.333c-18.481,0-33.464,14.982-33.464,33.464    c0,18.482,14.982,33.465,33.464,33.465V315.333z"/>
		<path style="opacity:0.5;fill:#222222;" d="M222.52,315.333c-17.181,0-31.328,12.948-33.237,29.618h66.476    C253.85,328.281,239.701,315.333,222.52,315.333z"/>
	</g>
	<g>
		<circle style="fill:#333E48;" cx="299.701" cy="348.797" r="33.464"/>
		<circle style="fill:#A4A9AD;" cx="299.701" cy="348.797" r="9.164"/>
		<path style="opacity:0.5;fill:#222222;" d="M299.7,315.333c-18.481,0-33.464,14.982-33.464,33.464    c0,18.482,14.982,33.465,33.464,33.465V315.333z"/>
		<path style="opacity:0.5;fill:#222222;" d="M299.7,315.333c-17.181,0-31.328,12.948-33.237,29.618h66.476    C331.029,328.281,316.881,315.333,299.7,315.333z"/>
	</g>
	<path style="fill:#67CFE3;" d="M363.366,289.483c-4.312-4.31-17.165-11.83-17.165-11.83H36.061c0,0-12.854,7.521-17.165,11.83   c-5.177,4.684-8.43,11.453-8.43,18.985c0,14.136,11.459,25.596,25.595,25.596h310.141c14.136,0,25.595-11.46,25.595-25.596   C371.796,300.936,368.543,294.166,363.366,289.483z"/>
	<g>
		<path style="fill:#229CD2;" d="M244.716,176.167h-21.457V59.317C223.259,26.559,196.7,0,163.941,0    c-12.604,0-24.283,3.944-33.892,10.649l-0.026,0.003c-20.598,13.519-33.205,35.38-53.475,25.797v0.001    c-4.023-2.432-8.742-3.832-13.787-3.832c-14.747,0-26.701,11.954-26.701,26.7v218.335h310.141    C346.201,221.605,300.765,176.167,244.716,176.167z"/>
		<path style="fill:#67CFE3;" d="M223.259,59.317C223.259,26.559,196.7,0,163.941,0c-12.604,0-24.283,3.944-33.892,10.649    l-0.026,0.003c-20.598,13.519-33.205,35.38-53.475,25.797v0.001c-4.023-2.432-8.742-3.832-13.787-3.832    c-14.747,0-26.701,11.954-26.701,26.7v30.814c0-14.746,11.954-26.7,26.701-26.7c5.045,0,9.764,1.4,13.787,3.832v-0.001    c20.27,9.583,32.877-12.278,53.475-25.797l0.026-0.003c9.608-6.704,21.287-10.648,33.892-10.648    c32.759,0,59.317,26.559,59.317,59.317V59.317z"/>
		<circle style="fill:#333E48;" cx="67.162" cy="100.307" r="15.078"/>
		<path style="opacity:0.2;fill:#222222;" d="M130.05,10.649l-0.026,0.003c-20.598,13.519-33.205,35.38-53.475,25.797v0.001    c-4.023-2.432-8.742-3.832-13.787-3.832c-14.747,0-26.701,11.954-26.701,26.7v218.335h109.28V2.99    C139.846,4.81,134.704,7.401,130.05,10.649z"/>
		<path style="fill:#333E48;" d="M247.87,176.22c-22.633,27.62-36.219,62.938-36.219,101.433h134.55    C346.201,222.66,302.458,177.888,247.87,176.22z"/>
	</g>
	<rect x="133.891" y="150.365" style="fill:#333E48;" width="89.368" height="15"/>
	<g>
		<circle style="fill:#67CFE3;" cx="126.493" cy="157.865" r="18.825"/>
		<circle style="fill:#333E48;" cx="126.493" cy="157.865" r="7.398"/>
		<path style="opacity:0.2;fill:#222222;" d="M126.493,139.041c-10.397,0-18.825,8.426-18.825,18.824    c0,10.396,8.428,18.826,18.825,18.826V139.041z"/>
	</g>
	<rect x="133.891" y="97.307" style="fill:#333E48;" width="89.368" height="15"/>
	<g>
		<circle style="fill:#67CFE3;" cx="126.493" cy="104.807" r="18.825"/>
		<circle style="fill:#333E48;" cx="126.493" cy="104.807" r="7.398"/>
		<path style="opacity:0.2;fill:#222222;" d="M126.493,85.982c-10.397,0-18.825,8.426-18.825,18.824    c0,10.396,8.428,18.826,18.825,18.826V85.982z"/>
	</g>
	<path style="opacity:0.2;fill:#222222;" d="M36.061,277.652c0,0-12.854,7.521-17.165,11.83c-5.177,4.684-8.43,11.453-8.43,18.985   c0,14.136,11.459,25.596,25.595,25.596h155.07v-56.411H36.061z"/>
</g>















</svg>
