<?xml version="1.0" encoding="iso-8859-1"?>
<!-- Generator: Adobe Illustrator 19.0.0, SVG Export Plug-In . SVG Version: 6.00 Build 0)  -->
<svg xmlns="http://www.w3.org/2000/svg" xmlns:xlink="http://www.w3.org/1999/xlink" version="1.1" id="Layer_1" x="0px" y="0px" viewBox="0 0 407.639 407.639" style="enable-background:new 0 0 407.639 407.639;" xml:space="preserve" width="512" height="512">
<g>
	<g>
		<g>
			<rect x="70.874" y="145.979" style="fill:#77BC1F;" width="18.835" height="256.968"/>
			<path style="opacity:0.3;fill:#218649;" d="M70.874,151.209v14.618c3.074,0.463,6.218,0.706,9.417,0.706     c3.2,0,6.344-0.243,9.417-0.706v-14.618H70.874z"/>
		</g>
		<g>
			<path style="fill:#FF637D;" d="M110.255,114.032c0,16.549-29.963,29.963-29.963,29.963s-29.963-13.414-29.963-29.963V29.964     C50.329,13.417,80.291,0,80.291,0s29.963,13.417,29.963,29.964V114.032z"/>
			<path style="opacity:0.2;fill:#222222;" d="M80.291,143.995c0,0-29.963-13.414-29.963-29.963V29.964     C50.329,13.417,80.291,0,80.291,0V143.995z"/>
			<path style="opacity:0.3;fill:#222222;" d="M103.751,16.162c-10.321,6.536-18.559,16.074-23.46,27.387     C75.39,32.236,67.153,22.698,56.832,16.162c-3.791,4.131-6.503,8.824-6.503,13.802v84.068c0,16.549,29.963,29.963,29.963,29.963     s29.963-13.414,29.963-29.963V29.964C110.255,24.986,107.541,20.293,103.751,16.162z"/>
			<path style="fill:#FF637D;" d="M24.304,98.378c0,30.92,25.067,55.985,55.988,55.985V67.716c0-30.921-25.066-55.988-55.988-55.988     V98.378z"/>
			<path style="opacity:0.2;fill:#222222;" d="M24.304,98.378c0,30.92,25.067,55.985,55.988,55.985V67.716     c0-30.921-25.066-55.988-55.988-55.988V98.378z"/>
			<path style="fill:#FF637D;" d="M136.28,98.378c0,30.92-25.067,55.985-55.988,55.985V67.716c0-30.921,25.066-55.988,55.988-55.988     V98.378z"/>
		</g>
		<g>
			<path style="fill:#77BC1F;" d="M105.561,247.654c-18.229,40.992-17.395,81.164-17.395,81.164s30.388-26.29,48.616-67.28     c18.229-40.995,17.396-81.166,17.396-81.166S123.79,206.661,105.561,247.654z"/>
			<path style="opacity:0.3;fill:#218649;" d="M88.166,328.818c0,0,30.388-26.29,48.616-67.28     c18.229-40.995,17.396-81.166,17.396-81.166L88.166,328.818z"/>
			<path style="opacity:0.1;fill:#222222;" d="M154.178,180.372c0,0-12.957,11.213-27.025,30.406     c2.685,11.919,6.682,25.19,12.65,38.613c0.335,0.754,0.683,1.493,1.026,2.238C154.869,214.311,154.178,180.372,154.178,180.372z"/>
		</g>
		<g>
			<path style="fill:#77BC1F;" d="M55.022,232.303c18.229,40.993,17.394,81.163,17.394,81.163s-30.388-26.29-48.615-67.28     C5.572,205.192,6.406,165.02,6.406,165.02S36.793,191.309,55.022,232.303z"/>
			<path style="opacity:0.3;fill:#218649;" d="M72.416,313.466c0,0-30.388-26.29-48.615-67.28     C5.572,205.192,6.406,165.02,6.406,165.02L72.416,313.466z"/>
		</g>
	</g>
	<g>
		<g>
			<rect x="317.93" y="145.979" style="fill:#77BC1F;" width="18.835" height="256.968"/>
			<path style="opacity:0.3;fill:#218649;" d="M317.93,151.209v14.618c3.073,0.463,6.218,0.706,9.417,0.706     c3.199,0,6.344-0.243,9.417-0.706v-14.618H317.93z"/>
		</g>
		<g>
			<path style="fill:#675DC6;" d="M357.31,114.032c0,16.549-29.963,29.963-29.963,29.963s-29.963-13.414-29.963-29.963V29.964     C297.384,13.417,327.347,0,327.347,0s29.963,13.417,29.963,29.964V114.032z"/>
			<path style="opacity:0.2;fill:#222222;" d="M327.347,143.995c0,0-29.963-13.414-29.963-29.963V29.964     C297.384,13.417,327.347,0,327.347,0V143.995z"/>
			<path style="opacity:0.2;fill:#222222;" d="M350.807,16.162c-10.321,6.536-18.558,16.074-23.46,27.387     c-4.901-11.313-13.139-20.851-23.46-27.387c-3.79,4.131-6.503,8.824-6.503,13.802v84.068c0,16.549,29.963,29.963,29.963,29.963     s29.963-13.414,29.963-29.963V29.964C357.31,24.986,354.597,20.293,350.807,16.162z"/>
			<path style="fill:#675DC6;" d="M271.359,98.378c0,30.92,25.067,55.985,55.988,55.985V67.716     c0-30.921-25.067-55.988-55.988-55.988V98.378z"/>
			<path style="opacity:0.2;fill:#222222;" d="M271.359,98.378c0,30.92,25.067,55.985,55.988,55.985V67.716     c0-30.921-25.067-55.988-55.988-55.988V98.378z"/>
			<path style="fill:#675DC6;" d="M383.335,98.378c0,30.92-25.067,55.985-55.988,55.985V67.716     c0-30.921,25.066-55.988,55.988-55.988V98.378z"/>
		</g>
		<g>
			<path style="fill:#77BC1F;" d="M352.616,247.654c-18.228,40.992-17.394,81.164-17.394,81.164s30.388-26.29,48.615-67.28     c18.229-40.995,17.396-81.166,17.396-81.166S370.846,206.661,352.616,247.654z"/>
			<path style="opacity:0.3;fill:#218649;" d="M335.222,328.818c0,0,30.388-26.29,48.615-67.28     c18.229-40.995,17.396-81.166,17.396-81.166L335.222,328.818z"/>
		</g>
		<g>
			<path style="fill:#77BC1F;" d="M302.078,232.303c18.229,40.993,17.395,81.163,17.395,81.163s-30.388-26.29-48.616-67.28     c-18.229-40.993-17.396-81.166-17.396-81.166S283.848,191.309,302.078,232.303z"/>
			<path style="opacity:0.3;fill:#218649;" d="M319.472,313.466c0,0-30.388-26.29-48.616-67.28     c-18.229-40.993-17.396-81.166-17.396-81.166L319.472,313.466z"/>
			<path style="opacity:0.1;fill:#222222;" d="M267.26,179.049c-2.974,2.916-7.065,7.142-11.741,12.555     c2.142,15.008,6.493,34.69,15.337,54.582c0.65,1.461,1.319,2.897,1.997,4.319c6.752-19.119,9.852-37.008,11.262-49.969     C278.191,191.95,272.286,184.705,267.26,179.049z"/>
		</g>
	</g>
	<path style="fill:#95D600;" d="M48.12,407.639c0-15.875-12.768-34.028-17.955-37.72c10.375-0.308,32.319,5.846,39.101,17.23   c1.595-1.848,8.777-16.001,6.383-19.691c9.177,1.538,18.354,14.151,21.147,22.768c5.187-6.154,14.894-22.768,20.746-25.845   c-0.797,5.23-1.065,23.384,2.394,26.769c3.458-6.462,23.141-14.154,31.121-15.385c-5.985,6.77-11.57,22.213-11.57,31.874   C139.487,407.639,65.675,407.639,48.12,407.639z"/>
	<path style="fill:#95D600;" d="M268.533,407.639c0-15.875-12.768-34.028-17.954-37.72c10.374-0.308,32.318,5.846,39.101,17.23   c1.596-1.848,8.777-16.001,6.383-19.691c9.177,1.538,18.354,14.151,21.146,22.768c5.187-6.154,14.895-22.768,20.747-25.845   c-0.797,5.23-1.064,23.384,2.394,26.769c3.458-6.462,23.142-14.154,31.121-15.385c-5.985,6.77-11.57,22.213-11.57,31.874   C359.9,407.639,286.089,407.639,268.533,407.639z"/>
	<g>
		<g>
			<rect x="194.086" y="145.979" style="fill:#77BC1F;" width="18.834" height="256.968"/>
			<path style="opacity:0.3;fill:#218649;" d="M194.086,151.209v14.618c3.073,0.463,6.217,0.706,9.416,0.706     c3.2,0,6.344-0.243,9.418-0.706v-14.618H194.086z"/>
		</g>
		<g>
			<path style="fill:#FEDD3D;" d="M233.465,114.032c0,16.549-29.963,29.963-29.963,29.963s-29.963-13.414-29.963-29.963V29.964     C173.54,13.417,203.502,0,203.502,0s29.963,13.417,29.963,29.964V114.032z"/>
			<path style="opacity:0.2;fill:#222222;" d="M203.502,143.995c0,0-29.963-13.414-29.963-29.963V29.964     C173.54,13.417,203.502,0,203.502,0V143.995z"/>
			<path style="opacity:0.2;fill:#222222;" d="M226.962,16.162c-10.32,6.536-18.558,16.074-23.46,27.387     c-4.901-11.313-13.139-20.851-23.46-27.387c-3.79,4.131-6.503,8.824-6.503,13.802v84.068c0,16.549,29.963,29.963,29.963,29.963     s29.963-13.414,29.963-29.963V29.964C233.465,24.986,230.753,20.293,226.962,16.162z"/>
			<path style="fill:#FEDD3D;" d="M147.514,98.378c0,30.92,25.067,55.985,55.988,55.985V67.716     c0-30.921-25.067-55.988-55.988-55.988V98.378z"/>
			<path style="opacity:0.2;fill:#222222;" d="M147.514,98.378c0,30.92,25.067,55.985,55.988,55.985V67.716     c0-30.921-25.067-55.988-55.988-55.988V98.378z"/>
			<path style="fill:#FEDD3D;" d="M259.491,98.378c0,30.92-25.067,55.985-55.988,55.985V67.716     c0-30.921,25.067-55.988,55.988-55.988V98.378z"/>
		</g>
		<g>
			<path style="fill:#77BC1F;" d="M228.772,247.654c-18.229,40.992-17.394,81.164-17.394,81.164s30.388-26.29,48.615-67.28     c18.229-40.995,17.395-81.166,17.395-81.166S247.001,206.661,228.772,247.654z"/>
			<path style="opacity:0.3;fill:#218649;" d="M211.378,328.818c0,0,30.388-26.29,48.615-67.28     c18.229-40.995,17.395-81.166,17.395-81.166L211.378,328.818z"/>
		</g>
		<g>
			<path style="fill:#77BC1F;" d="M178.233,232.303c18.229,40.993,17.395,81.163,17.395,81.163s-30.388-26.29-48.615-67.28     c-18.229-40.993-17.395-81.166-17.395-81.166S160.004,191.309,178.233,232.303z"/>
			<path style="opacity:0.3;fill:#218649;" d="M195.628,313.466c0,0-30.388-26.29-48.615-67.28     c-18.229-40.993-17.395-81.166-17.395-81.166L195.628,313.466z"/>
		</g>
	</g>
	<path style="fill:#00953A;" d="M166.036,407.639c0-15.875-12.768-34.028-17.955-37.72c10.375-0.308,32.319,5.846,39.102,17.23   c1.595-1.848,8.776-16.001,6.383-19.691c9.177,1.538,18.354,14.151,21.146,22.768c5.187-6.154,14.895-22.768,20.747-25.845   c-0.797,5.23-1.064,23.384,2.394,26.769c3.458-6.462,23.141-14.154,31.12-15.385c-5.984,6.77-11.569,22.213-11.569,31.874   C257.404,407.639,183.592,407.639,166.036,407.639z"/>
</g>















</svg>
